<?xml version="1.0" encoding="UTF-8" standalone="no"?>
<svg width="29px" height="30px" viewBox="0 0 29 30" version="1.1" xmlns="http://www.w3.org/2000/svg" xmlns:xlink="http://www.w3.org/1999/xlink">
    <defs></defs>
    <g id="Page-1" stroke="none" stroke-width="1" fill="none" fill-rule="evenodd" stroke-linecap="round">
        <g id="Home-+-sub" transform="translate(-1361.000000, -690.000000)" stroke="#FFFFFF" stroke-width="2">
            <g id="Login" transform="translate(1008.000000, 678.000000)">
                <g id="Group-13" transform="translate(354.000000, 13.000000)">
                    <path d="M27,23 C27,18.582 20.95605,15 13.5,15 C6.04395,15 0,18.582 0,23" id="Stroke-13"></path>
                    <path d="M13.5,15 C17.6420455,15 21,11.6420455 21,7.5 C21,3.35795455 17.6420455,0 13.5,0 C9.35795455,0 6,3.35795455 6,7.5 C6,11.6420455 9.35795455,15 13.5,15 L13.5,15 Z" id="Stroke-15"></path>
                    <path d="M27,23 L27,27.103125 C27,27.469375 26.865675,28 26.474175,28 L0.863325,28 C0.479925,28 0,27.465 0,27.103125 L0,23" id="Stroke-17"></path>
                </g>
            </g>
        </g>
    </g>
</svg>