<?xml version="1.0" encoding="UTF-8" standalone="no"?>
<svg width="29px" height="29px" viewBox="0 0 29 29" version="1.1" xmlns="http://www.w3.org/2000/svg" xmlns:xlink="http://www.w3.org/1999/xlink">
    <defs></defs>
    <g id="Page-1" stroke="none" stroke-width="1" fill="none" fill-rule="evenodd">
        <g id="Kennisbank---blog-weergave" transform="translate(-935.000000, -1576.000000)" fill-rule="nonzero" fill="#FFFFFF">
            <g id="Kennisbank-onderdeel-Copy-3" transform="translate(33.000000, 1564.000000)">
                <g id="Group-2">
                    <g id="1486066205_More" transform="translate(902.000000, 12.000000)">
                        <g id="Layer_1">
                            <g id="Group">
                                <path d="M14.5,0 C6.49177083,0 0,6.492375 0,14.5 C0,22.5082292 6.49177083,29 14.5,29 C22.5082292,29 29,22.5088333 29,14.5 C29,6.492375 22.5082292,0 14.5,0 Z M14.5175208,26.4890833 C7.85779167,26.4890833 2.45895833,21.09025 2.45895833,14.431125 C2.45895833,7.772 7.85779167,2.37195833 14.5175208,2.37195833 C21.1766458,2.37195833 26.5760833,7.77079167 26.5760833,14.4305208 C26.5760833,21.09025 21.17725,26.4890833 14.5175208,26.4890833 Z" id="Shape"></path>
                                <path d="M19.6716667,13.2324583 L15.7699583,13.2324583 L15.7747917,9.25945833 C15.7590833,8.98516667 15.6412708,8.44141667 14.9706458,8.44020833 L14.0166667,8.439 C13.3031458,8.43839583 13.242125,9.14285417 13.2385,9.327125 L13.2336667,13.2318542 L9.2419375,13.2318542 C8.50485417,13.2318542 8.442625,13.800375 8.43960417,13.9628958 L8.43960417,15.0558333 C8.44322917,15.2050625 8.50425,15.7675417 9.2419375,15.7675417 L13.2306458,15.7675417 L13.2258125,19.75625 C13.2246042,20.4927292 13.793125,20.5561667 13.95625,20.5597917 L15.0491875,20.561 C15.1984167,20.557375 15.7608958,20.4963542 15.7621042,19.759875 L15.7669375,15.7681458 L19.7429583,15.7681458 C20.01725,15.7518333 20.561,15.6334167 20.561,14.9627917 L20.561,14.0094167 C20.5603958,13.2958958 19.8559375,13.2360833 19.6716667,13.2324583 Z" id="Shape"></path>
                            </g>
                        </g>
                    </g>
                </g>
            </g>
        </g>
    </g>
</svg>