<?xml version="1.0" encoding="UTF-8" standalone="no"?>
<svg width="45px" height="40px" viewBox="0 0 45 40" version="1.1" xmlns="http://www.w3.org/2000/svg" xmlns:xlink="http://www.w3.org/1999/xlink">
    <defs>
        <filter x="-2.3%" y="-2.8%" width="217.8%" height="106.3%" filterUnits="objectBoundingBox" id="filter-1">
            <feOffset dx="0" dy="1" in="SourceAlpha" result="shadowOffsetOuter1"></feOffset>
            <feGaussianBlur stdDeviation="2.5" in="shadowOffsetOuter1" result="shadowBlurOuter1"></feGaussianBlur>
            <feColorMatrix values="0 0 0 0 0   0 0 0 0 0   0 0 0 0 0  0 0 0 0.2 0" type="matrix" in="shadowBlurOuter1" result="shadowMatrixOuter1"></feColorMatrix>
            <feMerge>
                <feMergeNode in="shadowMatrixOuter1"></feMergeNode>
                <feMergeNode in="SourceGraphic"></feMergeNode>
            </feMerge>
        </filter>
    </defs>
    <g id="Page-1" stroke="none" stroke-width="1" fill="none" fill-rule="evenodd">
        <g id="Kennisbank---blog-weergave" transform="translate(-1355.000000, -1639.000000)" fill-rule="nonzero" fill="#FFFFFF">
            <g id="Reacties" filter="url(#filter-1)" transform="translate(1009.000000, 1634.000000)">
                <path d="M368.91974,9.40846725 C359.304059,9.21671064 351.388971,15.2084167 351.241508,22.790781 C351.190018,25.4268841 352.084867,27.9080275 353.677448,30.0315874 L353.676972,30.0315874 C356.415729,33.5894015 353.426528,39.7057357 353.426528,39.7057357 L362.251905,35.8624876 C364.153221,36.4699461 366.219413,36.823953 368.384572,36.8670089 C378.000117,37.0585591 385.915069,31.0673345 386.062737,23.4846951 C386.210608,15.902262 378.535286,9.60015507 368.91974,9.40846725 M361.2083,25.3182129 C360.023625,25.3182129 359.06341,24.3471183 359.06341,23.1494649 C359.06341,21.9517427 360.023625,20.9805794 361.2083,20.9805794 C362.392839,20.9805794 363.353189,21.9518115 363.353189,23.1494649 C363.353189,24.3471183 362.392907,25.3182129 361.2083,25.3182129 M368.357637,25.3182129 C367.173098,25.3182129 366.212883,24.3471183 366.212883,23.1494649 C366.212883,21.9517427 367.173098,20.9805794 368.357637,20.9805794 C369.542312,20.9805794 370.502526,21.9518115 370.502526,23.1494649 C370.502526,24.3471183 369.542312,25.3182129 368.357637,25.3182129 M375.507042,25.3182129 C374.322367,25.3182129 373.362153,24.3471183 373.362153,23.1494649 C373.362153,21.9517427 374.322367,20.9805794 375.507042,20.9805794 C376.691717,20.9805794 377.651796,21.9518115 377.651796,23.1494649 C377.651864,24.3471183 376.691717,25.3182129 375.507042,25.3182129" id="Shape"></path>
            </g>
        </g>
    </g>
</svg>