<?xml version="1.0" encoding="UTF-8" standalone="no"?>
<svg width="19px" height="16px" viewBox="0 0 19 16" version="1.1" xmlns="http://www.w3.org/2000/svg" xmlns:xlink="http://www.w3.org/1999/xlink">
    <defs></defs>
    <g id="Page-1" stroke="none" stroke-width="1" fill="none" fill-rule="evenodd">
        <g id="Single-blog-page" transform="translate(-668.000000, -1126.000000)" fill-rule="nonzero" fill="#FFFFFF">
            <g id="Content" transform="translate(100.000000, 553.000000)">
                <g id="share" transform="translate(0.000000, 563.000000)">
                    <g id="Twit-share" transform="translate(560.000000, 0.000000)">
                        <g id="1486055564_03-twitter" transform="translate(8.142857, 10.080000)">
                            <g id="Layer_1">
                                <path d="M18.2976857,1.8308722 C17.6250286,2.14187707 16.9011143,2.35166049 16.1415429,2.44554146 C16.9170857,1.96261463 17.5117429,1.19765854 17.7921714,0.28512 C17.0667714,0.732889756 16.2637429,1.05780293 15.4083429,1.23320195 C14.7238,0.474427317 13.7480571,0 12.6683143,0 C10.5953714,0 8.91465714,1.74819512 8.91465714,3.90475317 C8.91465714,4.21034927 8.94771429,4.50821854 9.01197143,4.79449756 C5.89197143,4.63146146 3.12557143,3.07720976 1.274,0.714731707 C0.950857143,1.29115317 0.765885714,1.96184195 0.765885714,2.67811902 C0.765885714,4.0326322 1.42851429,5.22797268 2.43582857,5.92802341 C1.82074286,5.90754732 1.24168571,5.73176195 0.735428571,5.43930146 C0.735057143,5.4555278 0.735057143,5.47214049 0.735057143,5.48875317 C0.735057143,7.38028098 2.02911429,8.95809951 3.7466,9.31739707 C3.43162857,9.40625561 3.09994286,9.45416195 2.75748571,9.45416195 C2.51531429,9.45416195 2.2802,9.42982244 2.05102857,9.3838478 C2.52905714,10.9350088 3.91522857,12.0642849 5.55768571,12.0955785 C4.27291429,13.1429502 2.6546,13.767278 0.895514286,13.767278 C0.5928,13.767278 0.2938,13.7487337 0,13.7124176 C1.66177143,14.8208312 3.6348,15.4667941 5.75454286,15.4667941 C12.6597714,15.4667941 16.4353429,9.51713561 16.4353429,4.35715902 C16.4353429,4.18794146 16.432,4.01911024 16.4249429,3.85143805 C17.1581429,3.30206049 17.7947714,2.61398634 18.2976857,1.8308722 Z" id="Shape"></path>
                            </g>
                        </g>
                    </g>
                </g>
            </g>
        </g>
    </g>
</svg>